<svg xmlns:xlink="http://www.w3.org/1999/xlink" width="75ex" height="12.343ex" style="font-size: 15px; vertical-align: -10.338ex; max-width: 450;" viewBox="0 -863.1 32291.5 5314.2" role="img" focusable="false" xmlns="http://www.w3.org/2000/svg">
<defs>
<path stroke-width="1" id="E1-MJMATHI-73" d="M131 289Q131 321 147 354T203 415T300 442Q362 442 390 415T419 355Q419 323 402 308T364 292Q351 292 340 300T328 326Q328 342 337 354T354 372T367 378Q368 378 368 379Q368 382 361 388T336 399T297 405Q249 405 227 379T204 326Q204 301 223 291T278 274T330 259Q396 230 396 163Q396 135 385 107T352 51T289 7T195 -10Q118 -10 86 19T53 87Q53 126 74 143T118 160Q133 160 146 151T160 120Q160 94 142 76T111 58Q109 57 108 57T107 55Q108 52 115 47T146 34T201 27Q237 27 263 38T301 66T318 97T323 122Q323 150 302 164T254 181T195 196T148 231Q131 256 131 289Z"></path>
<path stroke-width="1" id="E1-MJMAIN-28" d="M94 250Q94 319 104 381T127 488T164 576T202 643T244 695T277 729T302 750H315H319Q333 750 333 741Q333 738 316 720T275 667T226 581T184 443T167 250T184 58T225 -81T274 -167T316 -220T333 -241Q333 -250 318 -250H315H302L274 -226Q180 -141 137 -14T94 250Z"></path>
<path stroke-width="1" id="E1-MJMATHI-69" d="M184 600Q184 624 203 642T247 661Q265 661 277 649T290 619Q290 596 270 577T226 557Q211 557 198 567T184 600ZM21 287Q21 295 30 318T54 369T98 420T158 442Q197 442 223 419T250 357Q250 340 236 301T196 196T154 83Q149 61 149 51Q149 26 166 26Q175 26 185 29T208 43T235 78T260 137Q263 149 265 151T282 153Q302 153 302 143Q302 135 293 112T268 61T223 11T161 -11Q129 -11 102 10T74 74Q74 91 79 106T122 220Q160 321 166 341T173 380Q173 404 156 404H154Q124 404 99 371T61 287Q60 286 59 284T58 281T56 279T53 278T49 278T41 278H27Q21 284 21 287Z"></path>
<path stroke-width="1" id="E1-MJMAIN-2C" d="M78 35T78 60T94 103T137 121Q165 121 187 96T210 8Q210 -27 201 -60T180 -117T154 -158T130 -185T117 -194Q113 -194 104 -185T95 -172Q95 -168 106 -156T131 -126T157 -76T173 -3V9L172 8Q170 7 167 6T161 3T152 1T140 0Q113 0 96 17Z"></path>
<path stroke-width="1" id="E1-MJMATHI-6A" d="M297 596Q297 627 318 644T361 661Q378 661 389 651T403 623Q403 595 384 576T340 557Q322 557 310 567T297 596ZM288 376Q288 405 262 405Q240 405 220 393T185 362T161 325T144 293L137 279Q135 278 121 278H107Q101 284 101 286T105 299Q126 348 164 391T252 441Q253 441 260 441T272 442Q296 441 316 432Q341 418 354 401T367 348V332L318 133Q267 -67 264 -75Q246 -125 194 -164T75 -204Q25 -204 7 -183T-12 -137Q-12 -110 7 -91T53 -71Q70 -71 82 -81T95 -112Q95 -148 63 -167Q69 -168 77 -168Q111 -168 139 -140T182 -74L193 -32Q204 11 219 72T251 197T278 308T289 365Q289 372 288 376Z"></path>
<path stroke-width="1" id="E1-MJMAIN-29" d="M60 749L64 750Q69 750 74 750H86L114 726Q208 641 251 514T294 250Q294 182 284 119T261 12T224 -76T186 -143T145 -194T113 -227T90 -246Q87 -249 86 -250H74Q66 -250 63 -250T58 -247T55 -238Q56 -237 66 -225Q221 -64 221 250T66 725Q56 737 55 738Q55 746 60 749Z"></path>
<path stroke-width="1" id="E1-MJMAIN-3D" d="M56 347Q56 360 70 367H707Q722 359 722 347Q722 336 708 328L390 327H72Q56 332 56 347ZM56 153Q56 168 72 173H708Q722 163 722 153Q722 140 707 133H70Q56 140 56 153Z"></path>
<path stroke-width="1" id="E1-MJMAIN-6D" d="M41 46H55Q94 46 102 60V68Q102 77 102 91T102 122T103 161T103 203Q103 234 103 269T102 328V351Q99 370 88 376T43 385H25V408Q25 431 27 431L37 432Q47 433 65 434T102 436Q119 437 138 438T167 441T178 442H181V402Q181 364 182 364T187 369T199 384T218 402T247 421T285 437Q305 442 336 442Q351 442 364 440T387 434T406 426T421 417T432 406T441 395T448 384T452 374T455 366L457 361L460 365Q463 369 466 373T475 384T488 397T503 410T523 422T546 432T572 439T603 442Q729 442 740 329Q741 322 741 190V104Q741 66 743 59T754 49Q775 46 803 46H819V0H811L788 1Q764 2 737 2T699 3Q596 3 587 0H579V46H595Q656 46 656 62Q657 64 657 200Q656 335 655 343Q649 371 635 385T611 402T585 404Q540 404 506 370Q479 343 472 315T464 232V168V108Q464 78 465 68T468 55T477 49Q498 46 526 46H542V0H534L510 1Q487 2 460 2T422 3Q319 3 310 0H302V46H318Q379 46 379 62Q380 64 380 200Q379 335 378 343Q372 371 358 385T334 402T308 404Q263 404 229 370Q202 343 195 315T187 232V168V108Q187 78 188 68T191 55T200 49Q221 46 249 46H265V0H257L234 1Q210 2 183 2T145 3Q42 3 33 0H25V46H41Z"></path>
<path stroke-width="1" id="E1-MJMAIN-2B" d="M56 237T56 250T70 270H369V420L370 570Q380 583 389 583Q402 583 409 568V270H707Q722 262 722 250T707 230H409V-68Q401 -82 391 -82H389H387Q375 -82 369 -68V230H70Q56 237 56 250Z"></path>
<path stroke-width="1" id="E1-MJMAIN-61" d="M137 305T115 305T78 320T63 359Q63 394 97 421T218 448Q291 448 336 416T396 340Q401 326 401 309T402 194V124Q402 76 407 58T428 40Q443 40 448 56T453 109V145H493V106Q492 66 490 59Q481 29 455 12T400 -6T353 12T329 54V58L327 55Q325 52 322 49T314 40T302 29T287 17T269 6T247 -2T221 -8T190 -11Q130 -11 82 20T34 107Q34 128 41 147T68 188T116 225T194 253T304 268H318V290Q318 324 312 340Q290 411 215 411Q197 411 181 410T156 406T148 403Q170 388 170 359Q170 334 154 320ZM126 106Q126 75 150 51T209 26Q247 26 276 49T315 109Q317 116 318 175Q318 233 317 233Q309 233 296 232T251 223T193 203T147 166T126 106Z"></path>
<path stroke-width="1" id="E1-MJMATHBI-77" d="M636 367Q636 400 664 426T719 453Q748 453 772 431T796 357Q796 321 782 256T727 112T633 6Q604 -8 567 -8Q466 -8 415 43Q414 42 410 38T403 31T396 25T388 18T378 11T367 5T355 0T340 -4T324 -7T306 -8Q249 -8 209 5T151 40T125 84T117 129Q117 176 153 274T190 388Q190 408 158 396Q112 376 90 306Q85 288 81 285T61 282H55H44Q24 282 24 296Q24 305 34 328T63 380T114 430T187 452Q240 452 274 427T309 362Q309 346 275 255T240 117Q240 43 317 43Q325 43 333 45T347 50T359 57T369 66T377 75T383 83T388 90L390 95Q390 99 389 110T387 129Q387 139 391 167Q393 177 419 282T448 396Q456 414 475 429T519 444Q546 444 559 428T572 397Q572 384 542 265T511 114Q511 43 579 43Q608 43 633 66T673 122T699 188T714 244L718 267Q718 291 673 315Q636 335 636 367Z"></path>
<path stroke-width="1" id="E1-MJMAIN-22A4" d="M55 642T55 648T59 659T66 666T71 668H708Q723 660 723 648T708 628H409V15Q402 2 391 0Q387 0 384 1T379 3T375 6T373 9T371 13T369 16V628H71Q70 628 67 630T59 637Z"></path>
<path stroke-width="1" id="E1-MJMAIN-46" d="M128 619Q121 626 117 628T101 631T58 634H25V680H582V676Q584 670 596 560T610 444V440H570V444Q563 493 561 501Q555 538 543 563T516 601T477 622T431 631T374 633H334H286Q252 633 244 631T233 621Q232 619 232 490V363H284Q287 363 303 363T327 364T349 367T372 373T389 385Q407 403 410 459V480H450V200H410V221Q407 276 389 296Q381 303 371 307T348 313T327 316T303 317T284 317H232V189L233 61Q240 54 245 52T270 48T333 46H360V0H348Q324 3 182 3Q51 3 36 0H25V46H58Q100 47 109 49T128 61V619Z"></path>
<path stroke-width="1" id="E1-MJMAIN-4E" d="M42 46Q74 48 94 56T118 69T128 86V634H124Q114 637 52 637H25V683H232L235 680Q237 679 322 554T493 303L578 178V598Q572 608 568 613T544 627T492 637H475V683H483Q498 680 600 680Q706 680 715 683H724V637H707Q634 633 622 598L621 302V6L614 0H600Q585 0 582 3T481 150T282 443T171 605V345L172 86Q183 50 257 46H274V0H265Q250 3 150 3Q48 3 33 0H25V46H42Z"></path>
<path stroke-width="1" id="E1-MJMATHBI-67" d="M227 0Q142 0 93 43T43 166Q43 207 58 252T104 341T188 414T310 451L313 452Q316 452 319 452Q321 452 326 452T335 451Q367 451 390 443T425 425L436 416L443 421Q450 426 462 430T488 435Q511 435 525 422T540 386Q540 378 483 151T424 -82Q401 -139 335 -170T167 -202Q72 -202 36 -183T0 -125Q0 -90 24 -67T81 -43Q103 -43 119 -56T136 -99Q133 -124 114 -149L123 -150H183Q222 -150 254 -127T299 -74Q300 -71 306 -47T318 -1T324 23Q323 23 310 18T274 6T227 0ZM407 353Q406 354 404 358T400 365T395 371T388 379T381 385T371 391T360 396T346 400T329 401Q300 401 277 389T240 355T219 317T205 280Q171 148 171 109Q171 77 190 64T235 51T296 67Q322 82 337 98L345 106L407 353Z"></path>
<path stroke-width="1" id="E1-MJMAIN-5B" d="M118 -250V750H255V710H158V-210H255V-250H118Z"></path>
<path stroke-width="1" id="E1-MJMAIN-2218" d="M55 251Q55 328 112 386T249 444T386 388T444 249Q444 171 388 113T250 55Q170 55 113 112T55 251ZM245 403Q188 403 142 361T96 250Q96 183 141 140T250 96Q284 96 313 109T354 135T375 160Q403 197 403 250Q403 313 360 358T245 403Z"></path>
<path stroke-width="1" id="E1-MJMATHI-3D5" d="M409 688Q413 694 421 694H429H442Q448 688 448 686Q448 679 418 563Q411 535 404 504T392 458L388 442Q388 441 397 441T429 435T477 418Q521 397 550 357T579 260T548 151T471 65T374 11T279 -10H275L251 -105Q245 -128 238 -160Q230 -192 227 -198T215 -205H209Q189 -205 189 -198Q189 -193 211 -103L234 -11Q234 -10 226 -10Q221 -10 206 -8T161 6T107 36T62 89T43 171Q43 231 76 284T157 370T254 422T342 441Q347 441 348 445L378 567Q409 686 409 688ZM122 150Q122 116 134 91T167 53T203 35T237 27H244L337 404Q333 404 326 403T297 395T255 379T211 350T170 304Q152 276 137 237Q122 191 122 150ZM500 282Q500 320 484 347T444 385T405 400T381 404H378L332 217L284 29Q284 27 285 27Q293 27 317 33T357 47Q400 66 431 100T475 170T494 234T500 282Z"></path>
<path stroke-width="1" id="E1-MJMAIN-5D" d="M22 710V750H159V-250H22V-210H119V710H22Z"></path>
</defs>
<g stroke="currentColor" fill="currentColor" stroke-width="0" transform="matrix(1 0 0 -1 0 0)">
<g transform="translate(9260,0)">
 <use xlink:href="#E1-MJMATHI-73" x="0" y="0"></use>
 <use xlink:href="#E1-MJMAIN-28" x="469" y="0"></use>
 <use xlink:href="#E1-MJMATHI-69" x="859" y="0"></use>
 <use xlink:href="#E1-MJMAIN-2C" x="1204" y="0"></use>
 <use xlink:href="#E1-MJMATHI-6A" x="1649" y="0"></use>
 <use xlink:href="#E1-MJMAIN-29" x="2062" y="0"></use>
 <use xlink:href="#E1-MJMAIN-3D" x="2729" y="0"></use>
<g transform="translate(3785,0)">
 <use xlink:href="#E1-MJMATHI-73" x="0" y="0"></use>
 <use transform="scale(0.707)" xlink:href="#E1-MJMAIN-6D" x="663" y="-213"></use>
</g>
 <use xlink:href="#E1-MJMAIN-28" x="4944" y="0"></use>
 <use xlink:href="#E1-MJMATHI-69" x="5334" y="0"></use>
 <use xlink:href="#E1-MJMAIN-29" x="5679" y="0"></use>
 <use xlink:href="#E1-MJMAIN-2B" x="6291" y="0"></use>
<g transform="translate(7292,0)">
 <use xlink:href="#E1-MJMATHI-73" x="0" y="0"></use>
 <use transform="scale(0.707)" xlink:href="#E1-MJMAIN-6D" x="663" y="-213"></use>
</g>
 <use xlink:href="#E1-MJMAIN-28" x="8450" y="0"></use>
 <use xlink:href="#E1-MJMATHI-6A" x="8840" y="0"></use>
 <use xlink:href="#E1-MJMAIN-29" x="9252" y="0"></use>
 <use xlink:href="#E1-MJMAIN-2B" x="9864" y="0"></use>
<g transform="translate(10865,0)">
 <use xlink:href="#E1-MJMATHI-73" x="0" y="0"></use>
 <use transform="scale(0.707)" xlink:href="#E1-MJMAIN-61" x="663" y="-213"></use>
</g>
 <use xlink:href="#E1-MJMAIN-28" x="11788" y="0"></use>
 <use xlink:href="#E1-MJMATHI-69" x="12178" y="0"></use>
 <use xlink:href="#E1-MJMAIN-2C" x="12523" y="0"></use>
 <use xlink:href="#E1-MJMATHI-6A" x="12968" y="0"></use>
 <use xlink:href="#E1-MJMAIN-29" x="13381" y="0"></use>
</g>
<g transform="translate(10440,-1568)">
 <use xlink:href="#E1-MJMATHI-73" x="0" y="0"></use>
 <use transform="scale(0.707)" xlink:href="#E1-MJMAIN-6D" x="663" y="-213"></use>
 <use xlink:href="#E1-MJMAIN-28" x="1158" y="0"></use>
 <use xlink:href="#E1-MJMATHI-69" x="1548" y="0"></use>
 <use xlink:href="#E1-MJMAIN-29" x="1893" y="0"></use>
 <use xlink:href="#E1-MJMAIN-3D" x="2561" y="0"></use>
 <use xlink:href="#E1-MJMATHBI-77" x="3617" y="0"></use>
<g transform="translate(4448,0)">
 <use xlink:href="#E1-MJMAIN-6D" x="0" y="0"></use>
 <use transform="scale(0.707)" xlink:href="#E1-MJMAIN-22A4" x="1178" y="583"></use>
</g>
<g transform="translate(5932,0)">
 <use xlink:href="#E1-MJMAIN-46" x="0" y="0"></use>
 <use xlink:href="#E1-MJMAIN-46" x="653" y="0"></use>
 <use xlink:href="#E1-MJMAIN-4E" x="1307" y="0"></use>
 <use xlink:href="#E1-MJMAIN-4E" x="2057" y="0"></use>
</g>
 <use xlink:href="#E1-MJMAIN-6D" x="8740" y="0"></use>
<g transform="translate(9741,0)">
 <use xlink:href="#E1-MJMAIN-28" x="0" y="0"></use>
<g transform="translate(389,0)">
 <use xlink:href="#E1-MJMATHBI-67" x="0" y="0"></use>
 <use xlink:href="#E1-MJMATHI-69" x="545" y="0"></use>
</g>
 <use xlink:href="#E1-MJMAIN-29" x="1280" y="0"></use>
</g>
</g>
<g transform="translate(6327,-3136)">
 <use xlink:href="#E1-MJMATHI-73" x="0" y="0"></use>
 <use xlink:href="#E1-MJMAIN-61" x="469" y="0"></use>
 <use xlink:href="#E1-MJMAIN-28" x="970" y="0"></use>
 <use xlink:href="#E1-MJMATHI-69" x="1359" y="0"></use>
 <use xlink:href="#E1-MJMAIN-2C" x="1705" y="0"></use>
 <use xlink:href="#E1-MJMATHI-6A" x="2150" y="0"></use>
 <use xlink:href="#E1-MJMAIN-29" x="2562" y="0"></use>
 <use xlink:href="#E1-MJMAIN-3D" x="3229" y="0"></use>
 <use xlink:href="#E1-MJMATHBI-77" x="4286" y="0"></use>
<g transform="translate(5117,0)">
 <use xlink:href="#E1-MJMAIN-61" x="0" y="0"></use>
 <use transform="scale(0.707)" xlink:href="#E1-MJMAIN-22A4" x="707" y="583"></use>
</g>
<g transform="translate(6268,0)">
 <use xlink:href="#E1-MJMAIN-46" x="0" y="0"></use>
 <use xlink:href="#E1-MJMAIN-46" x="653" y="0"></use>
 <use xlink:href="#E1-MJMAIN-4E" x="1307" y="0"></use>
 <use xlink:href="#E1-MJMAIN-4E" x="2057" y="0"></use>
</g>
 <use xlink:href="#E1-MJMAIN-61" x="9076" y="0"></use>
<g transform="translate(9743,0)">
 <use xlink:href="#E1-MJMAIN-28" x="0" y="0"></use>
<g transform="translate(389,0)">
 <use xlink:href="#E1-MJMAIN-5B" x="0" y="0"></use>
<g transform="translate(278,0)">
 <use xlink:href="#E1-MJMATHBI-67" x="0" y="0"></use>
 <use xlink:href="#E1-MJMATHI-69" x="545" y="0"></use>
 <use xlink:href="#E1-MJMAIN-2C" x="891" y="0"></use>
 <use xlink:href="#E1-MJMATHBI-67" x="1336" y="0"></use>
 <use xlink:href="#E1-MJMATHI-6A" x="1881" y="0"></use>
 <use xlink:href="#E1-MJMAIN-2C" x="2294" y="0"></use>
 <use xlink:href="#E1-MJMATHBI-67" x="2739" y="0"></use>
 <use xlink:href="#E1-MJMATHI-69" x="3284" y="0"></use>
 <use xlink:href="#E1-MJMAIN-2218" x="3852" y="0"></use>
 <use xlink:href="#E1-MJMATHBI-67" x="4575" y="0"></use>
 <use xlink:href="#E1-MJMATHI-6A" x="5120" y="0"></use>
 <use xlink:href="#E1-MJMAIN-2C" x="5533" y="0"></use>
 <use xlink:href="#E1-MJMATHI-3D5" x="5978" y="0"></use>
 <use xlink:href="#E1-MJMAIN-28" x="6574" y="0"></use>
 <use xlink:href="#E1-MJMATHI-69" x="6964" y="0"></use>
 <use xlink:href="#E1-MJMAIN-2C" x="7309" y="0"></use>
 <use xlink:href="#E1-MJMATHI-6A" x="7755" y="0"></use>
 <use xlink:href="#E1-MJMAIN-29" x="8167" y="0"></use>
</g>
 <use xlink:href="#E1-MJMAIN-5D" x="8835" y="0"></use>
</g>
 <use xlink:href="#E1-MJMAIN-29" x="9503" y="0"></use>
</g>
</g>
</g>
</svg>